<svg xmlns="http://www.w3.org/2000/svg" width="430" height="430" fill="none" viewBox="0 0 430 430"><path fill="#ee8f66" d="M228.97 40c77.947 29.47 133.793 103.659 135.967 191.115C367.385 314.185 298.501 385 215.001 385 132.158 385 65 318.104 65 235.583c0-52.347 27.024-98.407 67.933-125.091-3.569 23.997.515 48.942 11.716 70.508 59.771-17.321 97.301-80.84 84.321-141"/><path fill="#ee8f66" d="M304.945 354.462A146.6 146.6 0 0 1 265.001 360C182.158 360 115 293.104 115 210.583c0-25.271 6.298-49.076 17.415-69.943a116.5 116.5 0 0 1 .518-30.148C92.023 137.176 65 183.236 65 235.583 65 318.104 132.158 385 215.001 385c33.573 0 64.783-11.448 89.944-30.538M193.112 152.925a110 110 0 0 0 1.537 3.075c42.556-12.332 73.838-48.083 83.642-89.367A210.6 210.6 0 0 0 228.97 40c8.943 41.45-6.092 84.495-35.858 112.925" opacity=".5" style="mix-blend-mode:multiply"/><path stroke="#121331" stroke-linecap="round" stroke-linejoin="round" stroke-width="7" d="M228.97 40c77.947 29.47 133.793 103.659 135.967 191.115C367.385 314.185 298.501 385 215.001 385 132.158 385 65 318.104 65 235.583c0-52.347 27.024-98.407 67.933-125.091-3.569 23.997.515 48.942 11.716 70.508 59.771-17.321 97.301-80.84 84.321-141"/></svg>